PathFileType	4	(X/Y/Z)	C:\Users\WrightLab\Desktop\Jo\P5V12.trc
DataRate	CameraRate	NumFrames	NumMarkers	Units	OrigDataRate	OrigDataStartFrame	OrigNumFrames
100.00	100.00	      16	19	mm	100.00	780	      2078
Frame#	Time	Headset_Front			Headset_Back			Headset_Left			Headset_Right			Left_Shoulder			Right_Shoulder			Sternum			C7			Left Elbow			Right Elbow			Left Wrist			Right Wrist			Left ASIS			Right ASIS			S2			Left Knee			Right Knee			Left Ankle			Right Ankle			
		X1	Y1	Z1	X2	Y2	Z2	X3	Y3	Z3	X4	Y4	Z4	X5	Y5	Z5	X6	Y6	Z6	X7	Y7	Z7	X8	Y8	Z8	X9	Y9	Z9	X10	Y10	Z10	X11	Y11	Z11	X12	Y12	Z12	X13	Y13	Z13	X14	Y14	Z14	X15	Y15	Z15	X16	Y16	Z16	X17	Y17	Z17	X18	Y18	Z18	X19	Y19	Z19	

780	7.790	-284.52420	1570.72156	656.67743	-279.92130	1502.11975	790.65833							-4.55538	1515.89111	865.82532	46.14200	1552.75940	623.08624	-149.76285	1344.48425	670.44580	-106.82516	1480.72290	460.75522	77.53064	1229.41125	919.83759	-10.89249	1233.18335	348.70544	-105.72832	1140.21704	1008.82526	-216.58000	1123.20520	387.84268	-143.56801	957.81232	809.85394	-167.26355	976.68201	535.62903	126.05951	998.84113	651.55988	-81.39417	513.65839	845.37189	-100.83030	512.33441	497.10840	134.78404	135.17632	924.82251	2.49693	111.30741	594.98700	
781	7.800	-284.50095	1571.08264	655.38452	-281.11432	1502.60986	789.24316							-4.58754	1515.84949	865.69659	46.28600	1552.70691	622.33850	-149.87375	1344.31604	670.36407	-106.61359	1480.47034	460.52658	77.36052	1229.40112	920.00391	-10.80056	1233.17200	348.47742	-105.86536	1140.19263	1008.42578	-216.51953	1122.98364	387.38031	-143.63428	957.56610	809.61267	-167.16714	976.75220	535.45886	125.95031	998.69489	651.38251	-81.43957	513.32660	845.54352	-100.84569	512.34357	497.11533	134.70839	135.18192	924.93042	2.29991	111.62268	594.78217	
782	7.810	-284.23724	1571.68604	653.88708	-281.93347	1503.05688	787.76007							-4.86594	1516.01831	865.69647	46.49226	1552.54431	622.44598	-149.90373	1344.29260	670.28314	-106.53822	1480.38892	460.46176	77.56026	1229.22144	919.81189	-10.64497	1232.98730	348.53186	-106.27436	1140.39124	1008.07544	-216.35458	1122.97607	387.11151	-143.74677	957.55188	809.47131	-167.22874	976.73145	535.41925	125.82141	998.55853	651.14429	-81.51583	513.31921	845.44110	-100.88338	512.32764	497.12964	134.61993	135.17747	925.03107	2.33958	111.25430	594.89099	
783	7.820	-284.39417	1572.97644	652.56885	-282.75934	1503.71655	786.06244							-4.87308	1516.00525	865.59412	46.72213	1552.27563	623.09888	-149.93791	1344.26367	670.20947	-106.48922	1480.32605	460.40704	77.38175	1229.34790	919.66010	-10.34650	1232.77942	348.42023	-106.45561	1140.43140	1007.65656	-216.58522	1123.02661	386.68500	-143.85829	957.53900	809.34778	-167.27644	976.73053	535.37451	125.82141	998.55853	651.14429	-81.64613	513.42719	844.90485	-100.95325	512.31885	497.14581	134.69566	135.17291	924.91998	2.33089	111.23962	594.88824	
784	7.830	-283.67023	1573.53394	650.85626	-283.91525	1504.24316	784.71167							-4.87857	1515.97339	865.47589	46.98735	1552.10901	623.31995	-149.93689	1344.28674	670.14148	-106.31676	1480.13855	460.21146	76.89345	1229.39661	919.72925	-10.26071	1232.76855	348.39633	-106.86814	1140.58789	1007.33954	-216.50583	1122.93213	386.41125	-143.75323	957.58948	809.05255	-167.43785	976.72302	535.18262	125.19714	998.44629	650.69409	-81.72025	513.37518	845.21014	-101.03595	512.33221	497.14063	134.50655	135.17873	925.08209	2.30722	111.25890	594.89911	
785	7.840	-283.46573	1574.44885	649.34741	-284.73987	1504.46082	782.79688							-4.95118	1516.12659	865.40723	46.96410	1552.05347	623.11450	-149.99805	1344.30664	670.08002	-106.25333	1480.05798	460.16766	76.78544	1229.43774	919.66083	-10.18943	1232.74756	348.37735	-106.99855	1140.54736	1007.35425	-216.35289	1122.88354	386.08328	-143.89789	957.58716	808.89026	-167.36357	976.75854	534.93451	125.08018	998.34662	650.45837	-82.00167	513.29156	845.04785	-101.14516	512.35205	497.15100	134.50122	135.17882	925.06512	2.23056	111.62103	594.79590	
786	7.850	-284.21002	1575.29980	647.99176	-285.93607	1505.19250	780.97137							-5.29497	1516.14709	865.44562	47.22385	1551.83203	623.84729	-150.04236	1344.29919	669.99231	-106.07273	1480.13013	459.96692	76.78749	1229.35107	919.66296	-10.11580	1232.71912	348.37051	-107.29697	1140.66785	1006.95215	-216.05244	1122.94067	385.60318	-144.20752	957.76575	808.65814	-167.54768	976.97864	534.65497	125.08018	998.34662	650.45837	-82.29786	513.54205	844.38550	-101.29679	512.32874	497.13287	134.35822	135.26466	925.15100	2.18362	111.30961	594.64410	
787	7.860	-282.94791	1575.94812	646.00433	-287.00848	1505.53943	779.15576							-5.26046	1515.96179	865.35724	47.29799	1551.75281	623.60590	-150.01971	1344.21216	669.72363	-106.00652	1480.11609	459.92010	76.44693	1229.38684	919.68396	-10.04356	1232.67651	348.36353	-107.32922	1140.58411	1006.67493	-216.03467	1122.83435	385.28671	-144.38994	957.76349	808.47986	-167.61400	976.99286	534.56671	124.83898	998.21338	650.56036	-82.64330	513.66229	844.22418	-101.57395	512.18567	497.17691	134.44229	135.27150	925.02887	2.25697	111.44183	594.97333	
788	7.870	-282.99277	1576.76392	644.35931	-288.24646	1506.23096	777.15375							-5.29275	1515.90735	865.26270	47.24720	1551.71875	623.46246	-150.11340	1344.22705	669.59070	-105.91351	1480.10242	459.85861	76.41370	1229.45422	919.50452	-9.96122	1232.67542	348.34650	-107.45113	1140.59631	1006.50922	-216.01527	1122.85852	385.14648	-144.61018	957.78613	808.26160	-167.89098	977.08020	534.28772	124.78413	998.04877	650.45294	-82.77888	513.43536	843.96533	-101.97427	512.42023	497.06265	134.44208	135.27321	925.02258	2.16540	111.34210	594.89124	
789	7.880	-282.86728	1577.91333	642.69897	-289.50348	1506.86597	775.20770							-5.69290	1515.82568	865.27124	47.29516	1551.65552	623.26465	-150.20363	1344.24182	669.46906	-105.82684	1480.09778	459.81909	76.04540	1229.52515	919.63416	-9.71485	1232.54309	348.37601	-107.68577	1140.59314	1006.36407	-216.01965	1122.86646	385.03293	-144.81465	957.77399	808.08075	-167.84880	977.10083	533.96204	124.70030	998.13470	650.43085	-83.13882	513.54071	844.21509	-102.45496	512.58606	496.84235	134.63879	135.27254	924.86755	2.24440	111.42139	594.72400	
790	7.890	-283.34351	1578.89221	641.19263	-290.23636	1507.13245	773.53229							-5.87356	1515.59167	865.17200	47.26080	1551.56128	622.91858	-150.32123	1344.12000	669.26111	-105.57986	1480.13940	459.59418	75.53780	1229.33276	919.92688	-9.64038	1232.48682	348.37924	-108.03307	1140.89746	1006.12445	-216.00027	1122.88477	384.91138	-145.62199	957.96759	808.02533	-167.92381	977.08032	533.84296	124.36909	998.07776	650.29150	-83.31884	513.49042	844.05402	-103.00459	513.03748	496.84125	134.43390	135.27342	924.99628	2.18959	111.34181	594.50403	
791	7.900	-282.59500	1579.81555	639.38080	-291.54929	1507.79700	771.79529							-6.18020	1515.42456	865.17590	47.27454	1551.50500	622.72839	-150.42761	1344.10095	669.09967	-105.48188	1480.11682	459.54828	75.41487	1229.27393	919.93933	-9.55260	1232.43347	348.39014	-108.69694	1141.07898	1005.90680	-215.93417	1122.82043	384.65720	-145.83194	957.95734	807.87579	-168.62363	977.31268	533.04132	123.81683	997.54810	650.25861	-83.47366	513.27277	843.72644	-103.40952	512.95911	496.71939	134.36134	135.27939	925.11267	2.21664	111.51093	594.55072	
792	7.910	-282.50864	1580.65918	637.79907	-292.27185	1508.31421	769.34009							-6.39570	1515.31421	865.03296	47.23897	1551.44971	622.51764	-150.54604	1344.12732	668.96411	-105.20473	1480.02930	459.21750	75.26789	1229.18176	919.92023	-9.28994	1232.07874	348.48288	-109.85841	1141.24854	1005.56049	-215.67566	1122.81384	384.16324	-145.88841	957.68176	807.53821	-168.67523	977.18726	532.79901	123.69795	997.20685	650.20844	-83.85346	513.16998	843.64893	-103.78291	512.89368	496.41821	134.37878	135.29936	925.10205	2.23227	111.19638	594.68860	
793	7.920	-281.46344	1581.07129	635.91144	-293.33865	1508.76599	767.73450							-6.90040	1515.37219	864.98590	47.23005	1551.39307	622.31555	-150.73795	1344.11548	668.84943	-104.79046	1479.91003	458.73935	75.16248	1229.14661	919.78876	-9.18575	1231.96069	348.68628	-110.26658	1141.30432	1005.22827	-215.56241	1122.63989	383.99106	-146.07164	957.64185	807.40558	-168.79845	977.18018	532.68353	123.48528	997.08704	650.06665	-83.93845	513.27734	843.38733	-104.15059	512.74695	496.08975	134.10477	135.41441	925.15723	2.05772	111.35858	594.46149	
794	7.930	-282.76529	1581.94128	634.81085	-294.50436	1509.22937	766.00787							-7.76475	1515.48816	865.08258	47.19927	1551.33789	622.10767	-150.86510	1344.10852	668.66602	-104.60932	1479.85999	458.68701	74.84843	1229.12964	920.06451	-8.89015	1231.60913	348.91217	-111.01279	1141.38196	1004.96326	-215.84306	1122.91980	383.80164	-146.60811	957.53125	807.40369	-168.92247	977.13373	532.56378	122.73463	996.96301	650.43011	-84.28265	513.15900	843.35199	-104.01087	512.16724	495.69031	133.84656	135.57668	925.11566	2.20143	111.37262	594.43042	
795	7.940	-282.09076	1582.35767	633.03979	-295.77316	1509.51819	764.45679							-8.38739	1515.56787	865.06195	47.12184	1551.23853	621.72302	-150.99133	1344.09570	668.51147	-104.47205	1479.80493	458.60342	74.24754	1229.29199	920.18604	-8.61592	1231.46191	349.02884	-111.80502	1141.22046	1005.02319	-215.75943	1122.74817	383.60602	-146.77289	957.46307	807.22839	-169.14330	977.03217	532.28210	122.38710	996.66284	650.57141	-84.41422	513.12158	843.23273	-104.53496	512.39960	495.29974	133.91867	135.54941	925.00934	1.97837	111.73920	594.24829	
